<mxfile host="65bd71144e">
    <diagram id="tVHvExn9b9t7ZnCJ9XQv" name="Page-1">
        <mxGraphModel dx="734" dy="1463" grid="1" gridSize="10" guides="1" tooltips="1" connect="1" arrows="1" fold="1" page="1" pageScale="1" pageWidth="850" pageHeight="1100" math="0" shadow="0">
            <root>
                <mxCell id="0"/>
                <mxCell id="1" parent="0"/>
                <mxCell id="10" style="edgeStyle=none;html=1;" edge="1" parent="1" source="2">
                    <mxGeometry relative="1" as="geometry">
                        <mxPoint x="370" y="120" as="targetPoint"/>
                        <Array as="points">
                            <mxPoint x="619" y="80"/>
                            <mxPoint x="380" y="70"/>
                            <mxPoint x="370" y="60"/>
                        </Array>
                    </mxGeometry>
                </mxCell>
                <mxCell id="2" value="&lt;b&gt;&lt;font&gt;&lt;span style=&quot;font-size: 18px&quot;&gt;bulma.css&lt;/span&gt;&lt;br&gt;&lt;font style=&quot;font-size: 15px&quot;&gt;body {background-color:'red'};&lt;/font&gt;&lt;br&gt;&lt;/font&gt;&lt;/b&gt;" style="rounded=1;whiteSpace=wrap;html=1;fillColor=#1ba1e2;strokeColor=#006EAF;fontColor=#ffffff;" vertex="1" parent="1">
                    <mxGeometry x="480" y="-80" width="230" height="110" as="geometry"/>
                </mxCell>
                <mxCell id="9" style="edgeStyle=none;html=1;" edge="1" parent="1" source="3">
                    <mxGeometry relative="1" as="geometry">
                        <mxPoint x="370" y="120" as="targetPoint"/>
                        <Array as="points">
                            <mxPoint x="125" y="90"/>
                            <mxPoint x="360" y="70"/>
                            <mxPoint x="370" y="70"/>
                        </Array>
                    </mxGeometry>
                </mxCell>
                <mxCell id="3" value="&lt;font&gt;&lt;font color=&quot;#000000&quot;&gt;&lt;b style=&quot;font-size: 22px&quot;&gt;index.js&lt;/b&gt;&lt;br&gt;&lt;font style=&quot;font-size: 13px&quot;&gt;import 'bulma/css/bulma.css';&lt;/font&gt;&lt;/font&gt;&lt;br&gt;&lt;/font&gt;" style="rounded=1;whiteSpace=wrap;html=1;fillColor=#1ba1e2;strokeColor=#006EAF;fontColor=#ffffff;" vertex="1" parent="1">
                    <mxGeometry x="40" y="-80" width="180" height="120" as="geometry"/>
                </mxCell>
                <mxCell id="11" style="edgeStyle=none;html=1;entryX=0.422;entryY=-0.05;entryDx=0;entryDy=0;entryPerimeter=0;" edge="1" parent="1" source="4" target="5">
                    <mxGeometry relative="1" as="geometry"/>
                </mxCell>
                <mxCell id="12" style="edgeStyle=none;html=1;entryX=0.5;entryY=0;entryDx=0;entryDy=0;" edge="1" parent="1" source="4" target="6">
                    <mxGeometry relative="1" as="geometry"/>
                </mxCell>
                <mxCell id="4" value="&lt;font style=&quot;font-size: 21px&quot;&gt;ESBuild&lt;/font&gt;" style="rounded=1;whiteSpace=wrap;html=1;fillColor=#a20025;strokeColor=#6F0000;fontColor=#ffffff;" vertex="1" parent="1">
                    <mxGeometry x="310" y="130" width="120" height="40" as="geometry"/>
                </mxCell>
                <mxCell id="5" value="&lt;font style=&quot;font-size: 19px&quot;&gt;output.js&lt;/font&gt;" style="rounded=1;whiteSpace=wrap;html=1;fillColor=#1ba1e2;strokeColor=#006EAF;fontColor=#ffffff;" vertex="1" parent="1">
                    <mxGeometry x="120" y="250" width="120" height="60" as="geometry"/>
                </mxCell>
                <mxCell id="6" value="&lt;font style=&quot;font-size: 18px&quot;&gt;output.css&lt;/font&gt;" style="rounded=1;whiteSpace=wrap;html=1;fillColor=#1ba1e2;strokeColor=#006EAF;fontColor=#ffffff;" vertex="1" parent="1">
                    <mxGeometry x="480" y="250" width="120" height="60" as="geometry"/>
                </mxCell>
            </root>
        </mxGraphModel>
    </diagram>
</mxfile>